HIERARCHY
ROOT hip
{
	OFFSET 0.000000 0.000000 0.000000 
	CHANNELS 6 Xposition Yposition Zposition Xrotation Zrotation Yrotation
	JOINT abdomen
	{
		OFFSET 0.000000 3.402643 0.000000 
		CHANNELS 3 Xrotation Zrotation Yrotation
		JOINT chest
		{
			OFFSET 0.000000 8.438565 -0.680529 
			CHANNELS 3 Xrotation Zrotation Yrotation
			JOINT neck
			{
				OFFSET 0.000000 10.207942 -0.272212 
				CHANNELS 3 Xrotation Zrotation Yrotation
				JOINT head
				{
					OFFSET 0.000000 3.130431 0.000000 
					CHANNELS 3 Xrotation Zrotation Yrotation
					End Site
					{
						OFFSET 0.000000 3.130435 0.000000 
					}
				}
			}
			JOINT lCollar
			{
				OFFSET 3.470700 6.669187 -0.816635 
				CHANNELS 3 Yrotation Zrotation Xrotation
				JOINT lShldr
				{
					OFFSET 3.198488 0.000000 0.000000 
					CHANNELS 3 Zrotation Yrotation Xrotation
					JOINT lForeArm
					{
						OFFSET 10.139888 0.000000 0.000000 
						CHANNELS 3 Yrotation Zrotation Xrotation
						JOINT lHand
						{
							OFFSET 8.370511 0.000000 0.000000 
							CHANNELS 3 Zrotation Yrotation Xrotation
							End Site
							{
								OFFSET 4.083176 0.000000 0.000000 
							}
						}
					}
				}
			}
			JOINT rCollar
			{
				OFFSET -3.470700 6.669187 -0.816635 
				CHANNELS 3 Yrotation Zrotation Xrotation
				JOINT rShldr
				{
					OFFSET -3.198488 0.000000 0.000000 
					CHANNELS 3 Zrotation Yrotation Xrotation
					JOINT rForeArm
					{
						OFFSET -10.139888 0.000000 0.000000 
						CHANNELS 3 Yrotation Zrotation Xrotation
						JOINT rHand
						{
							OFFSET -8.370511 0.000000 0.000000 
							CHANNELS 3 Zrotation Yrotation Xrotation
							End Site
							{
								OFFSET -4.083176 0.000000 0.000000 
							}
						}
					}
				}
			}
		}
	}
	JOINT lThigh
	{
		OFFSET 5.308129 -1.633274 1.361059 
		CHANNELS 3 Xrotation Zrotation Yrotation
		JOINT lShin
		{
			OFFSET -2.041588 -20.007561 0.000000 
			CHANNELS 3 Xrotation Zrotation Yrotation
			JOINT lFoot
			{
				OFFSET 0.000000 -19.190928 -1.224953 
				CHANNELS 3 Xrotation Yrotation Zrotation
				End Site
				{
					OFFSET 0.000000 -2.449906 4.627600 
				}
			}
		}
	}
	JOINT rThigh
	{
		OFFSET -5.308129 -1.633274 1.361059 
		CHANNELS 3 Xrotation Zrotation Yrotation
		JOINT rShin
		{
			OFFSET 2.041588 -20.007561 0.000000 
			CHANNELS 3 Xrotation Zrotation Yrotation
			JOINT rFoot
			{
				OFFSET 0.000000 -19.190928 -1.224953 
				CHANNELS 3 Xrotation Yrotation Zrotation
				End Site
				{
					OFFSET 0.000000 -2.449906 4.627600 
				}
			}
		}
	}
}
MOTION
Frames: 6
Frame Time: 0.016667
24.873142 43.921806 122.249641 0.869151 -0.283171 15.405800 -16.371901 0.490624 6.314070 22.050800 0.283107 3.054310 23.764700 -12.727700 13.182100 14.135100 3.247970 7.379200 2.000000 -2.000000 0.000000 -66.065002 -2.243680 135.843994 23.691700 -0.340042 0.054995 0.048164 -0.033471 -148.962997 -2.000000 2.000000 0.000000 89.696098 -5.163910 170.886002 -43.135201 0.314617 0.093480 -0.056242 0.024246 -145.613007 -16.390076 -2.342707 -10.365241 23.916311 2.749120 1.851698 -8.960453 -30.767336 -5.343585 -14.790418 1.880547 -1.893517 58.947811 -1.374412 -3.842854 -10.927489 2.919494 0.300679 
24.710476 43.908562 121.965431 1.064470 -0.312446 16.361300 -16.375401 0.574262 6.706260 22.148399 0.175713 3.247100 23.861200 -12.715800 13.822300 14.245800 3.496520 7.654900 2.000000 -2.000000 0.000000 -66.267601 -3.086000 134.380005 24.160400 -0.339589 0.056017 0.048857 -0.036567 -150.095993 -2.000000 2.000000 0.000000 -90.576599 -174.061005 -7.631350 -47.012199 0.308068 0.100012 -0.057304 0.030389 -147.839996 -16.967089 -2.342789 -10.746146 23.554728 2.727419 1.843238 -7.618151 -31.457615 -4.744484 -13.526231 2.520580 -1.457955 58.179558 -1.486979 -3.793838 -11.329987 5.619331 1.026866 
24.509729 43.841827 121.666603 1.201250 -0.663917 17.446899 -16.627399 0.562098 6.758930 22.041000 -0.078099 3.279210 23.654301 -13.037400 14.255800 14.116800 3.353960 7.914480 2.000000 -2.000000 0.000000 -66.395897 -2.401060 135.179001 25.547199 -0.338198 0.059019 0.050668 -0.043583 -152.682999 -2.000000 2.000000 0.000000 -90.527100 -173.022003 -5.984610 -51.230900 0.300459 0.106599 -0.058227 0.034834 -149.460999 -17.911306 -2.018715 -11.103920 23.662004 2.738459 1.853042 -5.728819 -32.426060 -3.782434 -12.231812 3.684517 -0.852734 56.676617 -1.600760 -3.708713 -11.877867 7.617521 1.673987 
24.308981 43.774948 121.367790 1.328340 -1.025120 18.521000 -16.879400 0.559385 6.809000 21.943399 -0.331934 3.302460 23.437201 -13.351600 14.700100 13.988000 3.220890 8.176380 2.000000 -2.000000 0.000000 -66.514397 -1.716100 135.979004 26.924101 -0.336746 0.061966 0.062559 -0.060276 -155.270996 -2.000000 2.000000 0.000000 -90.506897 -171.983002 -4.336840 -55.439899 0.292405 0.112595 -0.059269 0.039224 -151.072006 -18.814890 -1.687617 -11.461801 23.719656 2.746849 1.844038 -3.821463 -33.366707 -2.785214 -10.969539 4.825550 -0.234505 55.192352 -1.736583 -3.629064 -12.444036 9.583250 2.385710 
24.125307 43.722610 121.042007 1.553110 -1.259300 19.731300 -17.172701 0.452735 6.831540 21.816500 -0.742008 3.294100 23.474899 -13.293800 14.921700 13.958900 3.240480 8.295290 2.000000 -2.000000 0.000000 -66.926003 -1.138380 136.876999 28.115499 -0.335432 0.064487 0.063697 -0.053821 -156.520996 -2.000000 2.000000 0.000000 -90.574898 -171.647995 -3.019330 -58.740700 0.285793 0.116874 -0.059832 0.041394 -151.873001 -19.783155 -1.608780 -11.720533 23.702686 2.725736 1.850323 -0.812874 -34.166653 -1.085071 -9.965496 5.702461 0.645980 53.257278 -1.866986 -3.525710 -12.626269 10.703880 2.826605 
23.941633 43.670147 120.717354 1.768180 -1.493430 20.940001 -17.456200 0.346352 6.854770 21.699400 -1.152110 3.297140 23.502600 -13.236800 15.145300 13.920100 3.269800 8.425070 2.000000 -2.000000 0.000000 -67.327797 -0.560647 137.764999 29.297199 -0.334078 0.066960 0.064898 -0.057080 -157.761993 -2.000000 2.000000 0.000000 -90.652802 -171.322006 -1.711550 -62.041500 0.278946 0.120765 -0.060418 0.043531 -152.664001 -20.777882 -1.539834 -11.976745 23.723305 2.720358 1.858721 2.259735 -34.888962 0.673567 -8.949471 6.562059 1.533564 51.339439 -2.025596 -3.408691 -12.840280 11.807293 3.279835 
